<?xml version="1.0" encoding="UTF-8" standalone="no"?><svg width="1057" height="1236" viewBox="0 0 1057 1236" fill="none" xmlns="http://www.w3.org/2000/svg">
<path fill-rule="evenodd" clip-rule="evenodd" d="M17 0.270415L0 0.770415L0.213989 133.184C0.331989 206.802 0.814011 265.984 1.29901 266.469C2.26501 267.435 188.366 270.471 189.863 269.546C190.441 269.189 190.532 256.58 190.099 236.782L189.397 204.6L260.698 203.936C299.914 203.57 349.663 203.271 371.25 203.271L410.5 203.27V259.27C410.5 290.07 410.612 315.261 410.75 315.25C410.888 315.239 415.05 313.957 420 312.402L429 309.574V186.77L424 186.108C421.25 185.743 364.228 185.406 297.285 185.358C182.326 185.275 175.52 185.367 174.667 187.02C174.17 187.982 173.447 203.164 173.061 220.757C172.675 238.35 172.238 252.865 172.09 253.013C171.942 253.161 137.323 252.981 95.16 252.612L18.5 251.941V16.9934L156.25 17.6844C352.022 18.6654 830.876 20.2324 941.25 20.2534L1034.5 20.2704V252.27H888.581L889.198 220.426C889.642 197.488 889.198 188 889.198 187C888 187 634.737 185.743 631.216 186.626L628.5 187.308V338.819L647.5 348.257V206.27H870.472L871 270.751L874 271.392C878.262 272.303 1056.29 272.427 1056.84 271.52C1057.27 270.803 1056.11 111.761 1055.13 37.2704L1054.66 1.77041L973.828 1.1264C873.707 0.329402 40.36 -0.416585 17 0.270415ZM33.247 32.8564C32.924 33.1794 33.649 79.842 33.584 136.5C33.495 213.377 33.584 240 33.584 240.871C35 240.871 155.688 242.953 157.469 240.808C158.291 239.817 158.987 231.037 159.629 213.558C160.149 199.374 160.829 184.434 161.138 180.357L161.701 172.944L223.851 173.606C258.033 173.97 321.438 174.269 364.75 174.269L443.5 174.27V240.27C443.5 276.57 443.612 306.266 443.75 306.262C443.888 306.257 448.95 305.591 455 304.781C467.741 303.076 498.734 302.81 512 304.292C542.359 307.683 575.562 316.286 605.944 328.635C610.864 330.634 615.07 332.27 615.292 332.27C615.514 332.27 615.363 296.29 614.957 252.315L614.218 172.359L717.609 172.837C774.474 173.1 839.169 173.584 861.376 173.912H901.16V180.64C900.834 184.011 901.535 198.384 901.16 212.5V238.499H907.102C911.446 238.718 939.356 238.995 969.125 239.115C1020.3 239.321 1023.27 239.236 1023.7 237.551C1024.28 235.296 1022.62 35.2084 1022.01 33.5204C1021.65 32.5224 921.883 32.2704 527.698 32.2704C256.072 32.2704 33.569 32.5344 33.247 32.8564ZM469.078 316.177C466.37 316.503 463.984 317.29 463.776 317.926C463.291 319.401 461.11 316.925 520.881 382.742C584.391 452.677 581.233 449.27 582.537 449.27C585.275 449.27 587.319 446.975 588.514 442.56C591.317 432.207 594.579 429.27 603.272 429.27C607.041 429.27 608.964 429.892 611.768 432.02C616.256 435.425 617.489 437.047 626.013 450.77C650.097 489.538 686.286 527.526 721.5 551.005C747.222 568.155 768.689 576.458 787.5 576.532C795.622 576.564 797.979 576.169 803.75 573.813C807.463 572.297 810.496 570.768 810.491 570.414C810.486 570.06 809.4 565.045 808.078 559.27C790.483 482.406 726.295 404.899 641.676 358.341C600.27 335.559 553.307 320.716 508.644 316.295C497.814 315.223 477.501 315.163 469.078 316.177ZM433.5 320.211C363.501 335.039 304.931 382.233 271.47 450.77C251.379 491.922 242.166 530.109 240.829 577.77C239.882 611.539 242.735 637.051 251.535 673.508C256.925 695.834 259.032 702.166 268.263 723.77C271.553 731.47 276.515 743.455 279.29 750.404C282.064 757.353 287.244 769.728 290.801 777.904C305.7 812.156 307.878 817.389 312.558 830.18C315.257 837.556 319.31 849.481 321.566 856.68C326.454 872.283 329.35 877.763 333.225 878.742C336.705 879.62 350.266 879.533 351.74 878.622C352.344 878.249 391.124 878.044 437.919 878.167C527.128 878.402 527.078 878.404 559 873.821C564.5 873.032 571.25 872.102 574 871.756C585.863 870.262 621.481 861.322 635.166 856.404C687.426 837.624 732.35 804.338 766.549 759.057C803.521 710.106 822.188 649.28 816.443 596.481C814.54 578.985 813.08 576.297 807.602 580.198C793.416 590.299 766.808 586.919 736.674 571.189C712.85 558.753 691.969 542.842 667.948 518.822C645.144 496.017 627.598 473.287 613.488 448.27C607.569 437.777 607.138 437.307 603.405 437.285C600.506 437.268 598.105 439.513 597.004 443.27C594.662 451.26 592.233 455.203 588.996 456.271C581.433 458.767 579.438 457.031 530.991 405.77C444.67 314.437 448.431 318.263 445.071 318.34C443.382 318.379 438.175 319.221 433.5 320.211ZM642.5 868.765C640.025 869.511 636.088 870.622 633.75 871.234L629.5 872.347V1041.95L652.162 1042.61C664.625 1042.97 686.38 1043.27 700.505 1043.27H726.186L726.906 1129.87C727.302 1177.51 727.485 1216.59 727.313 1216.74C727.141 1216.88 637 1217.27 527 1217.62L327 1218.24V1041.59L369 1041.94C392.1 1042.14 414.682 1042.44 419.181 1042.6C426.638 1042.88 427.408 1042.73 427.882 1040.92C428.168 1039.83 428.434 1005.53 428.475 964.716L428.548 890.502L425.274 889.929C423.473 889.615 419.3 889.25 416 889.12L410 888.882L409.486 1027.1L361.028 1027.44C319.56 1027.72 312.363 1027.99 311.132 1029.27C309.906 1030.55 309.644 1045.73 309.347 1132.43C309.156 1188.35 309.375 1234.47 309.833 1234.93C310.872 1235.98 744.047 1236.06 745.092 1235.01C745.982 1234.12 745.833 1114.65 744.877 1063.52C744.29 1032.08 744.045 1028.27 742.609 1028.25C741.724 1028.23 720.3 1028.12 695 1028L649 1027.77L648.744 947.52C648.603 903.382 648.153 867.301 647.744 867.34C647.335 867.378 644.975 868.019 642.5 868.765ZM599.661 878.781C561.262 887.02 516.28 891.226 466.25 891.255L441.5 891.27L441.312 971.02C441.093 1064.47 441.207 1055.89 440.167 1056.93C439.709 1057.39 417.98 1058 391.88 1058.27C351.151 1058.7 344.293 1058.98 343.489 1060.27C342.924 1061.18 342.641 1090.25 342.776 1133.53L343 1205.29L527.904 1205.28C663.151 1205.26 713.171 1204.96 714.16 1204.14C715.279 1203.21 715.469 1190.61 715.257 1131.39L715 1059.77L616.5 1059.97V967.619C616.5 916.827 616.162 875.319 615.75 875.38C615.338 875.44 608.098 876.971 599.661 878.781Z" fill="#1E3769"/>
<path d="M462.5 318.5C458.5 314.5 462.792 314.326 465.5 314C473.923 312.986 494.67 312.928 505.5 314C550.163 318.421 600.094 334.718 641.5 357.5C726.119 404.058 790.844 482.954 808.439 559.818C809.761 565.593 810.847 570.608 810.852 570.962C810.857 571.316 807.824 572.845 804.111 574.361C798.34 576.717 795.983 577.112 787.861 577.08C769.05 577.006 747.583 568.703 721.861 551.553C686.647 528.074 650.459 490.086 626.375 451.318C617.851 437.595 616.618 435.973 612.13 432.568C609.326 430.44 607.403 429.818 603.634 429.818C594.941 429.818 591.679 432.755 588.876 443.108C587.681 447.523 585.636 449.818 582.898 449.818C581.594 449.818 584.752 453.225 521.242 383.29C461.5 317 463.268 319.268 462.5 318.5Z" fill="#C58035"/>
<path d="M270.814 451.47C304.275 382.933 359.501 334.328 429.5 319.5C434.175 318.51 444.811 315.539 446.5 315.5C449.86 315.423 445.179 312.167 531.5 403.5C579.947 454.761 579.437 457.496 587 455C590.237 453.932 594.006 451.96 596.348 443.97C597.449 440.213 599.601 436.483 602.5 436.5L602.531 436.5C606.246 436.522 608.597 436.536 614.5 447C628.61 472.017 646.196 495.195 669 518C693.021 542.02 714.176 558.564 738 571C768.134 586.73 794.314 589.601 808.5 579.5C813.5 575.94 814.597 579.004 816.5 596.5C822.245 649.299 802.865 710.806 765.893 759.757C731.694 805.038 686.77 838.324 634.51 857.104C620.825 862.022 585.207 870.962 573.344 872.456C570.594 872.802 563.844 873.732 558.344 874.521C526.422 879.104 526.472 879.102 437.263 878.867C390.468 878.744 351.5 879 351 879.442C349.5 879.5 336.049 880.32 332.569 879.442C328.694 878.463 325.798 872.983 320.91 857.38C318.654 850.181 314.601 838.256 311.902 830.88C307.222 818.089 305.044 812.856 290.145 778.604C286.588 770.428 281.408 758.053 278.634 751.104C275.859 744.155 270.897 732.17 267.607 724.47C258.376 702.866 256.269 696.534 250.879 674.208C242.079 637.751 239.226 612.239 240.173 578.47C241.51 530.809 250.723 492.622 270.814 451.47Z" fill="#C64E00"/>
</svg>
